<svg id="Layer_1" height="512" viewBox="0 0 512 512" width="512" xmlns="http://www.w3.org/2000/svg" data-name="Layer 1"><path d="m166.961 57.787a228.174 228.174 0 0 0 -29.01 14.777l-41.766 32.255a230.146 230.146 0 0 0 -30.885 37.181l-23.8 46.447a228.512 228.512 0 0 0 -14.5 80.385c0 126.473 102.527 229 229 229s229-102.527 229-229a228.494 228.494 0 0 0 -14.546-80.49l-23.854-46.487a230.1 230.1 0 0 0 -30.785-37.033l-41.765-32.257a228.374 228.374 0 0 0 -26.66-13.765z" fill="#cae6ee"/><path d="m57 268.832a228.512 228.512 0 0 1 14.507-80.388l23.793-46.444a230.146 230.146 0 0 1 30.881-37.178l41.766-32.255a228.356 228.356 0 0 1 28.627-14.612l-29.618-.165a228.228 228.228 0 0 0 -29.009 14.777l-41.762 32.252a230.146 230.146 0 0 0 -30.885 37.181l-23.8 46.447a228.512 228.512 0 0 0 -14.5 80.385c0 126.473 102.527 229 229 229 5.042 0 10.04-.181 15-.5-119.479-7.732-214-107.068-214-228.5z" fill="#b3c9ce"/><path d="m503.1 143.618a30.871 30.871 0 0 1 1.84 21.08s-11.33 5.5-22.79 1.23l.24-.7a12.912 12.912 0 1 0 -10.9-23.41l-.84-.39a33.632 33.632 0 0 1 13.07-14.47c.66.2 1.32.41 1.97.65a30.925 30.925 0 0 1 17.41 16.01z" fill="#c12826"/><path d="m504.941 164.7a27.985 27.985 0 0 1 -.85 2.69 30.97 30.97 0 0 1 -27.41 20.261c-8.16-14.531-10.15-26.091-9.16-35.051 4.2 7.41 9.41 11.37 14.61 13.32.01 0 .01 0 .02.01 11.46 4.27 22.79-1.23 22.79-1.23z" fill="#e84d7a"/><path d="m488.651 148.068a12.916 12.916 0 0 1 -6.26 17.16l-.24.7c-.01-.01-.01-.01-.02-.01-5.2-1.95-10.41-5.91-14.61-13.32a34.45 34.45 0 0 1 3.13-11.17l.84.39a12.917 12.917 0 0 1 17.16 6.25z" fill="#ffa4c2"/><path d="m472.521 187.6a31 31 0 1 1 11.2-60.641 33.632 33.632 0 0 0 -13.07 14.47 34.45 34.45 0 0 0 -3.13 11.17c-.99 8.96 1 20.52 9.16 35.051a30.544 30.544 0 0 1 -4.16-.05z" fill="#f43b3b"/><path d="m464.781 189.869a16.682 16.682 0 0 1 10.38 19.82l-2.28 8.85-8.86-2.28a16.7 16.7 0 0 1 -11.99-20.32 8.138 8.138 0 0 1 .28-.88 9.129 9.129 0 0 1 10.86-5.69 15.408 15.408 0 0 1 1.61.5z" fill="#8dc63f"/><path d="m442.331 169.328a9.142 9.142 0 0 1 5.69 10.871 14.388 14.388 0 0 1 -.5 1.61 16.689 16.689 0 0 1 -19.821 10.38l-8.85-2.281 2.281-8.86a16.685 16.685 0 0 1 20.319-11.99c.301.08.601.17.881.27z" fill="#8dc63f"/><path d="m433.12 131.988a16.72 16.72 0 0 1 9.65 18.66 17 17 0 0 1 -1.059 3.32 9.152 9.152 0 0 1 -11.521 4.92c-.17-.06-.349-.14-.53-.21a16.7 16.7 0 0 1 -8.97-21.03c.12-.32.25-.63.38-.95l3.67-8.37z" fill="#8dc63f"/><path d="m417.35 103.268a30.1 30.1 0 0 1 -42.16-32.568c.05-.33.11-.65.18-.97 12.76 9.97 23.56 13.59 32.31 13.95a32.945 32.945 0 0 0 11.18-1.37h.01a32.608 32.608 0 0 0 15.8-10.41h.01a30.116 30.116 0 0 1 -17.331 31.37z" fill="#f43b3b"/><path d="m434.681 71.9h-.01a32.608 32.608 0 0 1 -15.8 10.41h-.01l-.25-.86a12.54 12.54 0 1 0 -20.87-13.91l-.7.12c-2.43-11.63 4.52-21.69 4.52-21.69a30.122 30.122 0 0 1 32.781 23.94c.129.658.239 1.318.339 1.99z" fill="#c12826"/><path d="m422.4 119.738 2.29 8.58-8.58 2.29c-.319.08-.639.16-.969.22a16.2 16.2 0 0 1 -18.861-11.7 5.292 5.292 0 0 1 -.13-.54 8.878 8.878 0 0 1 6.42-10.33 16.711 16.711 0 0 1 4.11-.55 16.193 16.193 0 0 1 15.72 12.03z" fill="#8dc63f"/><path d="m415.141 64.058a12.533 12.533 0 0 1 3.469 17.39l.25.86a32.945 32.945 0 0 1 -11.18 1.37c-6.49-5.12-9.53-10.71-10.64-15.99v-.03l.7-.12a12.556 12.556 0 0 1 17.401-3.48z" fill="#ffa4c2"/><path d="m397.04 67.688c1.11 5.28 4.15 10.87 10.64 15.99-8.75-.36-19.55-3.98-32.31-13.95a30.126 30.126 0 0 1 23.49-23.34q1.335-.27 2.7-.42s-6.95 10.06-4.52 21.69z" fill="#e84d7a"/><path d="m388.04 106.288a16.211 16.211 0 0 1 -14.5 17.74l-8.84.89-.89-8.84a16.22 16.22 0 0 1 12.89-17.5 14.19 14.19 0 0 1 1.61-.24 8.891 8.891 0 0 1 9.6 7.06 8.668 8.668 0 0 1 .13.89z" fill="#8dc63f"/><path d="m371.74 82.438a8.884 8.884 0 0 1 -7.06 9.6 8.668 8.668 0 0 1 -.89.13 16.2 16.2 0 0 1 -17.74-14.5l.12-8.84 7.83-.88a16.21 16.21 0 0 1 17.5 12.88c.1.53.18 1.06.24 1.61z" fill="#8dc63f"/><path d="m237.55 12.688c-7.76 1.81-15.59 7.01-22.5 14.96-9.9-4.34-19.08-5.6-26.98-3.76-14.06 3.25-22.61 15.67-21.97 31.89a49.9 49.9 0 0 0 10.37 27.922c10.54 14.11 29.29 26 57.11 30.2a5.022 5.022 0 0 0 1.4-.04 4.6 4.6 0 0 0 1.28-.58 112.89 112.89 0 0 0 20.85-18.63v-79.372a27.306 27.306 0 0 0 -19.56-2.59z" fill="#e75163"/><path d="m166.84 68.828-.89 8.84a16.2 16.2 0 0 1 -17.74 14.5 8.668 8.668 0 0 1 -.89-.13 8.884 8.884 0 0 1 -7.06-9.6c.06-.55.14-1.08.24-1.61a16.21 16.21 0 0 1 17.5-12.88z" fill="#8dc63f"/><path d="m135.3 98.578a16.22 16.22 0 0 1 12.89 17.5l-.89 8.84-8.84-.89a16.211 16.211 0 0 1 -14.5-17.74 8.668 8.668 0 0 1 .13-.89 8.891 8.891 0 0 1 9.6-7.06 14.19 14.19 0 0 1 1.61.24z" fill="#8dc63f"/><path d="m136.81 70.7a30.1 30.1 0 1 1 -59.491 1.2h.01a32.608 32.608 0 0 0 15.8 10.41h.01a32.945 32.945 0 0 0 11.18 1.37c8.75-.36 19.55-3.98 32.31-13.95.071.318.131.638.181.97z" fill="#f43b3b"/><path d="m132.21 59.2a30.086 30.086 0 0 1 4.42 10.53c-12.76 9.97-23.56 13.59-32.31 13.95 6.49-5.12 9.53-10.71 10.64-15.99v-.03c2.43-11.63-4.52-21.69-4.52-21.69q1.365.15 2.7.42a30.038 30.038 0 0 1 19.07 12.81z" fill="#e84d7a"/><path d="m109.43 108.258a8.878 8.878 0 0 1 6.42 10.33 5.292 5.292 0 0 1 -.13.54 16.2 16.2 0 0 1 -18.861 11.7c-.33-.06-.65-.14-.969-.22l-8.58-2.29 2.29-8.58a16.2 16.2 0 0 1 16.68-12 16.565 16.565 0 0 1 3.15.52z" fill="#8dc63f"/><path d="m110.44 45.968s6.95 10.06 4.52 21.69l-.7-.12a12.54 12.54 0 1 0 -20.87 13.91l-.25.86h-.01a32.608 32.608 0 0 1 -15.8-10.41h-.01c.1-.67.21-1.33.34-1.99a30.122 30.122 0 0 1 32.781-23.94z" fill="#c12826"/><path d="m114.96 67.658v.03c-1.11 5.28-4.15 10.87-10.64 15.99a32.945 32.945 0 0 1 -11.18-1.37l.25-.86a12.54 12.54 0 1 1 20.87-13.91z" fill="#ffa4c2"/><path d="m90.869 181.048 2.281 8.86-8.85 2.281a16.689 16.689 0 0 1 -19.821-10.38 14.388 14.388 0 0 1 -.5-1.61 9.142 9.142 0 0 1 5.69-10.871c.28-.1.58-.19.881-.27a16.685 16.685 0 0 1 20.319 11.99z" fill="#8dc63f"/><path d="m91.31 137.648a16.7 16.7 0 0 1 -8.97 21.03c-.181.07-.36.15-.53.21a9.152 9.152 0 0 1 -11.521-4.92 17 17 0 0 1 -1.059-3.32 16.72 16.72 0 0 1 9.65-18.66l8.38-3.66 3.67 8.37c.13.32.26.63.38.95z" fill="#8dc63f"/><path d="m63.529 140.7a31 31 0 0 1 -24.1 46.9 31.63 31.63 0 0 1 -4.11.05c8.16-14.531 10.15-26.091 9.16-35.051a34.45 34.45 0 0 0 -3.13-11.17 33.632 33.632 0 0 0 -13.07-14.47 30.987 30.987 0 0 1 35.25 13.74z" fill="#f43b3b"/><path d="m59.969 195.939a16.7 16.7 0 0 1 -11.99 20.32l-8.86 2.28-2.28-8.85a16.682 16.682 0 0 1 10.38-19.82 15.408 15.408 0 0 1 1.61-.5 9.129 9.129 0 0 1 10.86 5.69 8.138 8.138 0 0 1 .28.88z" fill="#8dc63f"/><path d="m44.479 152.6c.99 8.96-1 20.52-9.16 35.051a30.97 30.97 0 0 1 -27.41-20.261 27.985 27.985 0 0 1 -.85-2.69s11.34 5.51 22.81 1.22c5.2-1.952 10.41-5.912 14.61-13.32z" fill="#e84d7a"/><path d="m41.349 141.428a34.45 34.45 0 0 1 3.13 11.17c-4.2 7.41-9.41 11.37-14.61 13.32l-.26-.69a12.912 12.912 0 1 1 10.9-23.41z" fill="#ffa4c2"/><path d="m41.349 141.428-.84.39a12.912 12.912 0 1 0 -10.9 23.41l.26.69c-11.47 4.29-22.81-1.22-22.81-1.22a30.98 30.98 0 0 1 19.25-37.09c.65-.24 1.31-.45 1.97-.65a33.632 33.632 0 0 1 13.07 14.47z" fill="#c12826"/><path d="m257.11 15.278a27.292 27.292 0 0 1 19.56-2.59c7.77 1.81 15.59 7.01 22.5 14.96 9.9-4.34 19.08-5.6 26.98-3.76 14.06 3.25 22.62 15.67 21.97 31.89-.01.33-.03.67-.06 1.01a50.086 50.086 0 0 1 -10.31 26.912c-10.54 14.11-29.29 26-57.11 30.2a5.022 5.022 0 0 1 -1.4-.04 4.73 4.73 0 0 1 -1.28-.58 112.89 112.89 0 0 1 -20.85-18.63c-19.2-22.34-21.76-46.39-14.24-63.27 3.33-7.332 8.32-12.852 14.24-16.102z" fill="#de3c44"/><path d="m223.07 368.576-127.415.194a28.71 28.71 0 0 0 -18.655 26.739v16.142a230.235 230.235 0 0 0 52.048 47.785l59.331 28.243a228.26 228.26 0 0 0 53.456 9.7l.165-101.87a28.822 28.822 0 0 0 -18.93-26.933z" fill="#80aaff"/><path d="m199 367.309v-.309h-79v.309c-5 31.99 3.525 64.35 22.035 90.631l.232.06h34.3l.261-.06a129.367 129.367 0 0 0 22.172-90.631z" fill="#a9dcff"/><path d="m205.667 244.917h11v26.417h-11z" fill="#313960"/><path d="m223.25 273.469a9.659 9.659 0 0 1 -14.47 9.68h-2.09v-15.22h2.09a8.27 8.27 0 0 1 5.57-2.43 7.739 7.739 0 0 1 4.83 1.37c.13.09.26.19.39.28a9.619 9.619 0 0 1 3.68 6.32z" fill="#b78b63"/><path d="m136 328v19.8a24.763 24.763 0 0 0 12.87 21.5l10.55 5.7h.17l10.545-5.706a24.758 24.758 0 0 0 12.865-21.494v-19.8z" fill="#b78b63"/><path d="m159.59 375h-.17l-12.67 19.615.13.112 5.64 4.861a.337.337 0 0 1 .07-.055l13.66-.077 5.72-4.708.25-.2z" fill="#e84d7a"/><path d="m127.69 366.769a30.9 30.9 0 0 1 5.75-14.91l2.96-4.06a24.646 24.646 0 0 0 12.67 21.54l10.35 5.75-12.67 19.57-.39.6a4.2 4.2 0 0 1 -6.75.41l-4.9-5.85a30.794 30.794 0 0 1 -7.02-23.05z" fill="#c5e5ff"/><path d="m112.33 267.929v15.22h-2.21a9.655 9.655 0 0 1 -14.461-9.68 9.619 9.619 0 0 1 4.071-6.6 8.17 8.17 0 0 1 10.39 1.06z" fill="#b78b63"/><path d="m191.33 366.769a30.909 30.909 0 0 1 -3.42 17.69 31.07 31.07 0 0 1 -3.61 5.36l-4.9 5.85a4.194 4.194 0 0 1 -6.74-.41l-.44-.67-12.63-19.5 10.35-5.75a24.646 24.646 0 0 0 12.67-21.54l2.96 4.06a30.818 30.818 0 0 1 5.76 14.91z" fill="#c5e5ff"/><path d="m200.885 245.87a7.889 7.889 0 0 1 -7.885-8v-8.83a96.019 96.019 0 0 1 -48.885-20.871 43.6 43.6 0 0 0 -14.238 2.391l-2.278.72a26.062 26.062 0 0 0 -17.6 24.47v52.66a49.154 49.154 0 0 0 14.565 34.77 50.047 50.047 0 0 0 11.892 8.73 49.469 49.469 0 0 0 72.544-43.501v-39.575l.142-.252a13.778 13.778 0 0 0 -8.257-2.712z" fill="#daaa79"/><path d="m192.73 231.039a96.051 96.051 0 0 1 -48.75-20.871 43.2 43.2 0 0 0 -14.17 2.391l-2.08.72a25.881 25.881 0 0 0 -17.4 24.47v30.18h-.21a8.17 8.17 0 0 0 -10.39-1.06 9.813 9.813 0 0 0 -2.1 1.97v-55.881a26.029 26.029 0 0 1 15.05-23.6l14.55-6.781a6.03 6.03 0 0 1 7.61 2.2l23.52-12.191a18.728 18.728 0 0 1 19.52 1.42l29.37 21.1a30.737 30.737 0 0 1 12.81 24.97v46.79l-.49.28c-.13-.09-.26-.19-.39-.28a7.739 7.739 0 0 0 -4.83-1.37l-.01-.12v-3.9a13.534 13.534 0 0 0 -3.98-9.61 13.164 13.164 0 0 0 -1.44-1.25 13.536 13.536 0 0 0 -8.17-2.73 8.019 8.019 0 0 1 -8.02-8.02z" fill="#313960"/><path d="m223 368.759.007-.1a29.234 29.234 0 0 0 -10.047-1.659h-14.96v.309a129.345 129.345 0 0 1 -22.185 90.62l-.3.05 4.214 26.62.126.194a216.268 216.268 0 0 0 39.145 9.994v-37.328a131.648 131.648 0 0 1 4-88.7z" fill="#4e6cca"/><path d="m143.267 457.983-.232-.054c-18.51-26.28-27.035-58.629-22.035-90.62v-.309h-14.95a28.428 28.428 0 0 0 -10.24 1.765l.04.052c8.934 21.425 11.816 48.3 8.552 71.634a229.659 229.659 0 0 0 37.234 26.818l.044-.132z" fill="#4e6cca"/><path d="m166.25 399.459a9.781 9.781 0 0 0 -13.66.08l-11.285 67.534a227.781 227.781 0 0 0 38.813 17.869l-13.8-85.323z" fill="#e75163"/><path d="m451.539 388.07-26.969-114.07h-.57l-123.448 8.6-58.552 177.939v36.855c4.632.279 9.3.438 14 .438a228.859 228.859 0 0 0 195.539-109.762z" fill="#f4f8fc"/><path d="m414.11 367h-17.73a13.544 13.544 0 0 1 -13.38-13.381v-21.44l.085-.06-45.087.01v.05 21.44a13.293 13.293 0 0 1 -13.078 13.381h-1.56a3.233 3.233 0 0 1 2.55 1.065c5.771 7.123 39.18 43.807 114.017 37.2q1.56-2.1 3.073-4.231v-5.529a28.676 28.676 0 0 0 -28.89-28.505z" fill="#e1b7a3"/><path d="m309 455.469.4-.58a16.7 16.7 0 0 1 -4.89-10.72 37.168 37.168 0 0 1 2.96-17.14l1.53-3.48-27.76-40.29-.275-.01a28.732 28.732 0 0 0 -2.965 12.26v101.266a228.375 228.375 0 0 0 31-5.12z" fill="#e1b7a3"/><path d="m309.945 329.241-3.945 9.189 17.913 1.865a6.925 6.925 0 0 1 2.313-4.132z" fill="#49201d"/><path d="m409.93 257 .07 2v29.409a49.04 49.04 0 0 1 -14.945 35.21l-.032.16a35.3 35.3 0 0 0 27.977-34.7v-25.29z" fill="#683029"/><path d="m326.54 337.459a28.4 28.4 0 0 1 -16.38-7.05 29.872 29.872 0 0 1 -7.76-34.03l5.05-11.95v-.01a9.391 9.391 0 0 0 3.56-1.12l-.02 4.63a49.5 49.5 0 0 0 14.59 35.071 50.092 50.092 0 0 0 12.51 9.13l-.02.05v5.41h-8.76c-.36 0-.71 0-1.07-.02-.57-.021-1.14-.051-1.7-.111z" fill="#683029"/><path d="m305.14 259.279-5.1 1.12.83 8.48 10.19.87.04-11.92q-2.955.795-5.96 1.45z" fill="#542724"/><path d="m424.49 274.389a9.675 9.675 0 0 1 -14.56 8.77h-2.1v-15.23h2.1a8.24 8.24 0 0 1 7.9-2.17 7.855 7.855 0 0 1 2.489 1.13 9.575 9.575 0 0 1 4.08 6.58 7.341 7.341 0 0 1 .091.92z" fill="#e1b7a3"/><path d="m300.91 282.809a9.724 9.724 0 0 1 -4.11-9.34 9.619 9.619 0 0 1 4.07-6.59c3.15-2.18 7.4-1.74 12.19.87l-.05 15.55c-3.09.6-4.3.99-5.56 1.12a9.691 9.691 0 0 1 -6.54-1.61z" fill="#e1b7a3"/><path d="m409.925 260.9c-29.94-21.69-20.625-61.2-20.4-62.181a131.154 131.154 0 0 1 -78.43 59.111l-.11 30.1a49.5 49.5 0 0 0 14.595 35.07 50.092 50.092 0 0 0 12.51 9.13 49.277 49.277 0 0 0 45.11-.01 49.752 49.752 0 0 0 11.855-8.5 49.04 49.04 0 0 0 14.945-35.211v-27.49z" fill="#efc5b4"/><path d="m366.52 177.238a67.9 67.9 0 0 0 -16.235 1.96 66.639 66.639 0 0 0 -14.462 5.35l-30.033 30.431a69.682 69.682 0 0 0 -6.52 39.45l.77 5.97 5.1-1.12q3-.66 5.96-1.45a131.154 131.154 0 0 0 78.43-59.111c-.23.981-9.545 40.491 20.4 62.181a55.662 55.662 0 0 0 8.075 4.85v.01a5.713 5.713 0 0 1 2.255 1.13c1.21.84 2.745 1.95 2.745 3.28v-36.3a56.511 56.511 0 0 0 -56.485-56.631z" fill="#7f3d32"/><path d="m335.86 184.548a11.51 11.51 0 0 1 .45 2.981 9.355 9.355 0 0 1 5.03 3.09c1.91 2.48 1.65 5.73-.66 8.339-3.43 3.88-10.7 5.491-19.22.38a1.1 1.1 0 0 1 -.23-.2 1.751 1.751 0 0 1 -.14-.27c-2.7-9.621.7-16.2 5.29-18.48 3.09-1.521 6.29-.941 8.2 1.539a7.74 7.74 0 0 1 1.28 2.621z" fill="#e75163"/><path d="m305.79 214.979a10.922 10.922 0 0 1 -.78-3.91 9.471 9.471 0 0 1 -5.03-3.09c-1.91-2.481-1.65-5.731.67-8.34 3.43-3.891 10.7-5.49 19.22-.381a.891.891 0 0 1 .23.2 1.152 1.152 0 0 1 .13.271c2.71 9.62-.7 16.19-5.28 18.48-3.09 1.51-6.3.93-8.21-1.55a7.19 7.19 0 0 1 -.95-1.68z" fill="#e75163"/><path d="m306.38 350.369a38.614 38.614 0 0 0 -6.35.32l2.92-13.44a38.821 38.821 0 0 1 3.87-.32c.41-.01.81-.02 1.22-.02a37.986 37.986 0 0 1 16.11 3.58 35.63 35.63 0 0 1 4.16 2.26l-2.92 13.44a37.316 37.316 0 0 0 -4.11-2.25 38.078 38.078 0 0 0 -14.9-3.57z" fill="#fe8700"/><path d="m439.938 405.254c-74.636 6.668-108.332-30.061-114.108-37.189a3.07 3.07 0 0 0 -2.47-1.065h-1.36l-12.95 56.564-1.555 3.472a37.165 37.165 0 0 0 -2.972 17.137 16.746 16.746 0 0 0 11.92 14.907 7.382 7.382 0 0 1 5.279 7.08 6.809 6.809 0 0 1 -.071 1l-3.582 22.154a229.3 229.3 0 0 0 121.869-84.06z" fill="#fb6771"/><path d="m336.65 384.9a30.59 30.59 0 0 1 11.28 35.83l-1.91 5.14-16.61 28.83c3.06-16.44-13.25-27.26-20.41-31.15-1.96-1.07-3.24-1.62-3.24-1.62-22.81-12.55-27.33-26.47-24.52-38.67 4.14-17.96 24.17-32.21 25.14-32.89a38.078 38.078 0 0 1 14.9 3.57c-.03 1.04-.04 2.08-.04 3.12q0 4.86.36 9.71c.03.44.06.87.1 1.31a21.152 21.152 0 0 0 8.54 12.39z" fill="#683029"/><g fill="#1e334c"><path d="m174.076 270.608a3 3 0 0 0 3-3 5.44 5.44 0 0 1 10.88 0 3 3 0 0 0 6 0 11.44 11.44 0 0 0 -22.88 0 3 3 0 0 0 3 3z"/><path d="m132.064 267.608a5.44 5.44 0 1 1 10.879 0 3 3 0 0 0 6 0 11.44 11.44 0 1 0 -22.879 0 3 3 0 0 0 6 0z"/><path d="m143.818 297.1a3 3 0 0 0 0 4.242 22.9 22.9 0 0 0 32.383 0 3 3 0 0 0 -4.243-4.242 16.9 16.9 0 0 1 -23.9 0 3 3 0 0 0 -4.24 0z"/><path d="m157.717 199.391a3 3 0 0 0 0 6h.961a54.573 54.573 0 0 1 38.843 16.089 3 3 0 1 0 4.243-4.242 60.533 60.533 0 0 0 -43.086-17.847z"/><path d="m374.168 270.612a3 3 0 0 0 3-3 5.44 5.44 0 1 1 10.879 0 3 3 0 1 0 6 0 11.44 11.44 0 1 0 -22.879 0 3 3 0 0 0 3 3z"/><path d="m346.035 270.612a3 3 0 0 0 3-3 11.44 11.44 0 1 0 -22.88 0 3 3 0 1 0 6 0 5.44 5.44 0 0 1 10.88 0 3 3 0 0 0 3 3z"/><path d="m376.293 301.35a3 3 0 1 0 -4.243-4.242 16.9 16.9 0 0 1 -23.9 0 3 3 0 0 0 -4.243 4.242 22.9 22.9 0 0 0 32.383 0z"/><path d="m316.1 402.55c-7.391-3.384-11.947-7.83-13.541-13.214-2.336-7.892 2.405-15.526 2.479-15.644a3 3 0 0 0 -5.049-3.242c-.258.4-6.295 9.951-3.2 20.523 2.091 7.15 7.749 12.881 16.816 17.032a3 3 0 0 0 2.5-5.455z"/><path d="m6.385 168.885a33.854 33.854 0 0 0 29.926 22.12 233 233 0 1 0 439.379 0 33.856 33.856 0 0 0 29.925-22.119c.351-.956.663-1.941.928-2.929a33.837 33.837 0 0 0 -21.02-40.491c-.675-.248-1.394-.486-2.149-.712a33.792 33.792 0 0 0 -35.884 11.291 234.491 234.491 0 0 0 -26-31.245 32.973 32.973 0 0 0 15.227-32.354c-.105-.749-.228-1.475-.366-2.159a32.951 32.951 0 0 0 -35.876-26.2c-.992.11-1.986.265-2.955.461a32.989 32.989 0 0 0 -24.913 22.485 233.351 233.351 0 0 0 -21.944-11.194c.263-17.021-9.142-30.172-24.2-33.66-8.037-1.864-17.012-.831-26.707 3.071-6.951-7.5-14.7-12.392-22.515-14.207a30.111 30.111 0 0 0 -20.134 2.133 30.12 30.12 0 0 0 -20.137-2.136c-7.814 1.814-15.561 6.71-22.513 14.206-9.694-3.9-18.669-4.933-26.706-3.071-14.776 3.422-24.108 16.147-24.207 32.693a233.2 233.2 0 0 0 -24.151 12.16 32.985 32.985 0 0 0 -24.911-22.483c-.97-.2-1.964-.352-2.957-.462a32.949 32.949 0 0 0 -35.875 26.2q-.207 1.026-.368 2.174a32.973 32.973 0 0 0 15.229 32.343 234.566 234.566 0 0 0 -26 31.244 33.792 33.792 0 0 0 -35.9-11.286c-.74.222-1.459.46-2.135.708a33.838 33.838 0 0 0 -21.019 40.492c.265.987.577 1.972.928 2.927zm28.4 15.96a27.807 27.807 0 0 1 -21.345-14.816 36.148 36.148 0 0 0 8.278.994 29.482 29.482 0 0 0 10.382-1.823 28.286 28.286 0 0 0 10.413-6.9c-.834 6.956-3.413 14.5-7.73 22.545zm-7.5-34.948c2.04-4.379 8.208-6.562 13.194-4.882a31.392 31.392 0 0 1 1.98 7.488 25.653 25.653 0 0 1 -10.914 10.406c-4.285-2.727-6.314-8.594-4.257-13.009zm75.22 286.124q-3.565-3.279-7.021-6.715-8.038-8.037-15.165-16.718h.921v-17.81a25.609 25.609 0 0 1 13.77-22.678c7.397 19.224 10.121 42.554 7.498 63.921zm36.508 27.4a227.394 227.394 0 0 1 -31.125-22.589c3.633-23.383.929-49.53-7.275-70.88a25.525 25.525 0 0 1 6.215-.767h11.127a130.1 130.1 0 0 0 22.1 88.121zm-15.013-94.231h1.168a33.87 33.87 0 0 0 1.3 9.45 33.425 33.425 0 0 0 6.572 12.405l4.878 5.824a7.1 7.1 0 0 0 5.487 2.569c.151 0 .3 0 .454-.014a7.137 7.137 0 0 0 3.727-1.32l2.275 1.952-8.31 48.544a124.081 124.081 0 0 1 -17.551-79.41zm-22.54-106.172v-49.832a22.984 22.984 0 0 1 13.234-20.762l14.48-6.744a3 3 0 0 1 3.774 1.091 3 3 0 0 0 3.9 1.04l23.4-12.119a15.536 15.536 0 0 1 16.28 1.182l29.223 20.987a27.652 27.652 0 0 1 11.5 22.407v38.074a16.537 16.537 0 0 0 -16.212-13.408 4.985 4.985 0 0 1 -4.98-4.98v-5.449c2.929.26 5.884.4 8.86.4h1.981a3 3 0 0 0 0-6h-1.98a91.86 91.86 0 0 1 -64.543-26.245 11.225 11.225 0 0 1 11.146-10.019h16.4a3 3 0 0 0 0-6h-16.4a17.229 17.229 0 0 0 -17.209 17.21 3 3 0 0 0 .88 2.123l.085.084q.984.985 2 1.937a45.922 45.922 0 0 0 -7.793 1.957l-2.062.716a28.786 28.786 0 0 0 -19.333 27.175v25.008a11.044 11.044 0 0 0 -6.631.167zm6.626 6.4v11.582a6.613 6.613 0 0 1 -5.836-11.718 5.068 5.068 0 0 1 5.836.131zm109.581-.131a6.615 6.615 0 0 1 -5.733 11.756v-11.698a5.061 5.061 0 0 1 5.733-.063zm-103.581-31.446a22.785 22.785 0 0 1 15.3-21.508l2.062-.715a39.9 39.9 0 0 1 12.072-2.19 97.465 97.465 0 0 0 46.539 20.365v6.161a10.992 10.992 0 0 0 10.98 10.98 10.445 10.445 0 0 1 4.894 1.216v36.089a45.924 45.924 0 1 1 -91.848 0zm54.582 155.381-2.023 1.666a12.884 12.884 0 0 0 -13.5.078l-1.879-1.613 8.743-13.5zm-17.581-27.1a21.521 21.521 0 0 1 -11.063-18.8v-11.164a51.87 51.87 0 0 0 39.972 0v11.162a21.521 21.521 0 0 1 -11.063 18.8l-8.923 4.956zm13.268 9.406 7.492-4.161a27.533 27.533 0 0 0 13.013-16.227 27.666 27.666 0 0 1 -2.483 32.051l-4.878 5.824a1.177 1.177 0 0 1 -1.89-.116zm-16.182-4.161 7.492 4.161-11.254 17.372a1.178 1.178 0 0 1 -1.891.116l-4.877-5.824a27.666 27.666 0 0 1 -2.483-32.051 27.533 27.533 0 0 0 13.013 16.227zm-3.623 95.294 11.35-66.306a6.8 6.8 0 0 1 8.086-.023l13.366 81.512a224.18 224.18 0 0 1 -32.802-15.182zm25.45-66.761 2.3-1.89a7.127 7.127 0 0 0 3.866 1.413c.152.009.3.014.454.014a7.1 7.1 0 0 0 5.487-2.569l4.878-5.824a33.439 33.439 0 0 0 6.572-12.405 33.869 33.869 0 0 0 1.3-9.45h.84a124.087 124.087 0 0 1 -17.683 79.611zm45.871 92.367a225.212 225.212 0 0 1 -32.062-8.149l-4.354-26.551a130.1 130.1 0 0 0 22.281-88.378h11.457a25.549 25.549 0 0 1 5.892.692 134.987 134.987 0 0 0 -3.214 86.978zm22.91 2.882q-8.523-.635-16.91-1.895v-36.844a2.983 2.983 0 0 0 -.134-.886 128.868 128.868 0 0 1 2.983-83.58 25.613 25.613 0 0 1 14.061 22.834zm36.557-100.368v100.189c-6.395.536-12.842.823-19.334.823q-5.634 0-11.223-.272v-35.565l52.489-157.585a32.764 32.764 0 0 0 4.719 23 33.1 33.1 0 0 0 4.159 5.243l-1.53 3c-.773.06-1.546.133-2.318.237a3 3 0 0 0 -2.53 2.338l-2.9 13.367a3 3 0 0 0 .728 2.671 2.944 2.944 0 0 0 .382.325c-6.694 5.906-16.552 16.354-19.643 28.761a31.323 31.323 0 0 0 -3.003 13.469zm91.631-197.491a3 3 0 0 0 -4.2.6 127.5 127.5 0 0 1 -61.207 44.275 65.569 65.569 0 0 1 4.757-21.412 9.024 9.024 0 0 0 4.977 1.468 10.62 10.62 0 0 0 4.663-1.118l.018-.01c4.764-2.374 8.546-8.33 7.749-16.833a21.11 21.11 0 0 0 7.754 1.582 14.48 14.48 0 0 0 11-4.594c3.242-3.655 3.562-8.524.8-12.116a10.854 10.854 0 0 0 -3.549-2.922 64.443 64.443 0 0 1 26.361-5.556 53.4 53.4 0 0 1 53.335 53.336v29.4a10.771 10.771 0 0 0 -1.271-.467c-15.386-7.84-24.522-20.736-27.146-38.342a71.839 71.839 0 0 1 .748-24.858 3 3 0 0 0 -5.484-2.27 127.941 127.941 0 0 1 -82.032 58.884l-1.874.41-.345-2.686c-.239-1.86-.391-3.72-.473-5.576a133.479 133.479 0 0 0 66.022-46.991 3 3 0 0 0 -.603-4.204zm-64.839 9.11c-1.442-1.873-.11-3.754.534-4.479a8.465 8.465 0 0 1 6.481-2.576 16.883 16.883 0 0 1 8.087 2.347c1.815 7.419-.605 12.37-3.922 14.03-1.789.872-3.454.617-4.455-.683a6.742 6.742 0 0 1 -1.1-3.827 3 3 0 0 0 -2.177-2.79 6.537 6.537 0 0 1 -3.448-2.022zm25.211-22.927c1.789-.871 3.454-.618 4.455.683a6.737 6.737 0 0 1 1.1 3.827 3 3 0 0 0 2.177 2.79 6.522 6.522 0 0 1 3.448 2.022c1.443 1.873.11 3.754-.533 4.48-2.5 2.825-7.95 3.917-14.568.233-1.82-7.425.603-12.378 3.921-14.039zm-2.311 175.2a3 3 0 0 0 2.932-2.365l2.9-13.366a2.993 2.993 0 0 0 -.833-2.768h4.614v12.944a10.094 10.094 0 0 1 -10.083 10.083h-.484c-.082-1.581-.128-3.164-.151-4.747a3 3 0 0 0 1.105.212zm-2.074-7.593q-.37-.183-.744-.358a40.764 40.764 0 0 0 -17.316-3.861q-.649 0-1.3.02l1.579-7.289a34.94 34.94 0 0 1 19.363 4.2zm5.974-16.906c-.322 0-.643-.006-.965-.017a25.567 25.567 0 0 1 -20.92-12.006 26.737 26.737 0 0 1 -2.12-24.809l2.853-6.751a52.454 52.454 0 0 0 26.863 42.959v.624zm-24.586-71.715 1.176-.257c.76-.166 1.517-.345 2.274-.525v1.085a11.154 11.154 0 0 0 -3.45-.31zm9.356 25.324.1-27.68a134.175 134.175 0 0 0 70.523-48.95 77.209 77.209 0 0 0 .718 14.1c2.274 15.579 9.471 28.2 20.984 37.079v25.914a45.976 45.976 0 0 1 -45.925 45.921 46.452 46.452 0 0 1 -46.4-46.391zm98.325.467v-1.068a12.4 12.4 0 0 0 1.952.17 12.778 12.778 0 0 0 4.753-.924c.237-.095.465-.2.693-.314v2.8a32.425 32.425 0 0 1 -15.923 27.786 51.6 51.6 0 0 0 8.525-28.457zm4.474-7.392a6.649 6.649 0 0 1 -4.474.191v-11.699a5.058 5.058 0 0 1 5.727-.049 6.6 6.6 0 0 1 -1.253 11.55zm-114.158-11.572a5.035 5.035 0 0 1 5.426-.117l-.043 11.961a6.6 6.6 0 0 1 -8.171-7.318 6.592 6.592 0 0 1 2.788-4.526zm.482 17.609-1.882 4.455 1.516-4.553c.122.037.243.065.366.103zm2.905 203.463a227.08 227.08 0 0 1 -24.394 4.029v-90.877c4.226 7.423 11.808 14.179 22.72 20.179a2.709 2.709 0 0 0 .26.126c.01 0 .206.092.527.243l-.389.885a39.979 39.979 0 0 0 -3.184 18.439 19.591 19.591 0 0 0 4.46 11.157zm-22.328-100.235c-.929-17.779 19.226-33.892 23.623-37.188a34.736 34.736 0 0 1 10.9 2.468c-.04 4.114.1 8.255.452 12.343a2.975 2.975 0 0 0 .075.458 24.041 24.041 0 0 0 9.7 14.087l6.375 4.4a27.4 27.4 0 0 1 10.121 32.13l-1.816 4.879-11.29 19.592c-1.555-5.679-5.2-11.093-10.846-16.009a59.739 59.739 0 0 0 -13.861-8.918c-15.005-8.273-22.887-17.774-23.433-28.242zm34.944 75.477-3.5 22.518c-1.038.277-2.076.559-3.119.821v-29.509a19.479 19.479 0 0 0 3.54 1.465 4.318 4.318 0 0 1 3.079 4.705zm98.169-36.293a225.828 225.828 0 0 1 -95.313 57.024l3.085-19.867a10.3 10.3 0 0 0 -7.3-11.318 13.706 13.706 0 0 1 -9.729-12.162 33.946 33.946 0 0 1 2.7-15.642l.17-.385a51.4 51.4 0 0 1 6.733 4.944c7.513 6.589 10.615 13.726 9.219 21.212a3 3 0 0 0 5.548 2.049l16.528-28.681a3.048 3.048 0 0 0 .212-.452l1.9-5.114a33.394 33.394 0 0 0 -5.866-33.315c15.934 10.253 40.982 20.675 77.038 20.675q6.782 0 14.1-.526a230.478 230.478 0 0 1 -19.025 21.557zm22.355-27.835c-65.844 5.938-98.792-22.547-108.726-33.3a16.1 16.1 0 0 0 10.5-15.063v-16.709a51.971 51.971 0 0 0 38.921-.036v16.743a16.1 16.1 0 0 0 16.083 16.083h17.634a25.616 25.616 0 0 1 25.588 25.588zm6-6.63v-.059a31.623 31.623 0 0 0 -31.588-31.588h-17.635a10.094 10.094 0 0 1 -10.083-10.083v-19.642a52.134 52.134 0 0 0 9.845-7.2 38.46 38.46 0 0 0 29.737-32.828l22.868 96.584q-1.539 2.425-3.144 4.815zm40.742-212.395a27.732 27.732 0 0 1 -8.393 2.4c-4.312-8.044-6.895-15.588-7.73-22.545a28.3 28.3 0 0 0 10.413 6.9 29.506 29.506 0 0 0 10.384 1.823 36.148 36.148 0 0 0 8.278-.994 27.623 27.623 0 0 1 -12.952 12.416zm-2.693-51.527c.179.062.362.113.538.178a27.78 27.78 0 0 1 17.6 31.916 29.963 29.963 0 0 1 -14.565 1.724 15.83 15.83 0 0 0 -11.18-26.5 31.414 31.414 0 0 1 7.607-7.318zm.8 18.976a9.86 9.86 0 0 1 -3.968 12.665 26.031 26.031 0 0 1 -10.211-10.061 31.358 31.358 0 0 1 2.1-7.771 9.857 9.857 0 0 1 12.074 5.171zm-21.6-17.907a27.81 27.81 0 0 1 11.746-2.6c.434 0 .869.026 1.3.046a36.962 36.962 0 0 0 -11.733 23.375c-1.071 9.684 1.3 20.44 7.032 32.029a27.829 27.829 0 0 1 -8.348-52.85zm9 77.192-1.519 5.9-5.905-1.521a13.615 13.615 0 0 1 -9.774-16.553c.053-.2.112-.4.183-.6a6.07 6.07 0 0 1 5.7-3.991 6.146 6.146 0 0 1 1.533.2c.48.126.914.26 1.325.411a13.549 13.549 0 0 1 8.452 16.154zm-26.997-29.348c-.127.484-.262.918-.412 1.327a13.553 13.553 0 0 1 -16.152 8.457l-5.9-1.519 1.521-5.906a13.616 13.616 0 0 1 16.552-9.774c.205.054.406.113.6.183a6.073 6.073 0 0 1 3.791 7.232zm-6.82-47.633a19.556 19.556 0 0 0 -3.9-2.3l-7.066-3.1-1.9-7.124a19.012 19.012 0 0 0 -3.09-6.392 228.947 228.947 0 0 1 15.956 18.916zm.691 21.1a6.1 6.1 0 0 1 -7.68 3.281c-.113-.042-.229-.089-.349-.142a13.621 13.621 0 0 1 -7.314-17.136c.1-.267.207-.531.311-.775l2.446-5.584 5.583 2.447a13.62 13.62 0 0 1 7.004 17.909zm-35.413-103.372q.737-.04 1.474-.04a26.95 26.95 0 0 1 26.417 21.591c.034.169.055.337.086.507a29.813 29.813 0 0 1 -7.888 6.07 17.351 17.351 0 0 0 -.14-5.111 15.758 15.758 0 0 0 -6.556-10.376 15.136 15.136 0 0 0 -12.023-1.978 17.088 17.088 0 0 0 -5.13 2.165 29.651 29.651 0 0 1 3.76-12.828zm13.145 30.786a30.28 30.28 0 0 1 -7.734.875 24.9 24.9 0 0 1 -8.3-11.81 10.877 10.877 0 0 1 5.638-3.349 9.226 9.226 0 0 1 7.316 1.132 9.74 9.74 0 0 1 3.978 6.438 10.783 10.783 0 0 1 -.898 6.714zm-34.078-18.825a26.742 26.742 0 0 1 13.606-10.516 31.359 31.359 0 0 0 -1.884 17.916 27.51 27.51 0 0 0 4.955 10.844c-6.456-1.838-13.211-5.39-20.187-10.621a26.849 26.849 0 0 1 3.51-7.623zm25.11 25.691q.84.036 1.674.037a35.94 35.94 0 0 0 22.389-7.747 26.933 26.933 0 0 1 -53.688-3.675c10.25 7.162 20.198 10.99 29.625 11.385zm11.878 33.643 1.5 5.637-5.614 1.5c-.271.07-.538.134-.807.188a13.141 13.141 0 0 1 -15.278-9.488c-.031-.114-.059-.231-.082-.347a5.838 5.838 0 0 1 4.216-6.784 13.119 13.119 0 0 1 16.06 9.3zm-3.5-13.361c.229-.081.453-.17.68-.256.729.723 1.458 1.446 2.178 2.179a19.312 19.312 0 0 0 -2.859-1.923zm-42.5 13.871-5.81.583-.582-5.8a13.073 13.073 0 0 1 10.427-14.17c.412-.084.845-.149 1.312-.2.2-.02.4-.03.6-.03a5.811 5.811 0 0 1 5.707 4.668c.038.192.066.39.085.584a13.138 13.138 0 0 1 -11.744 14.365zm-1.313-48.5c-.051.463-.088.926-.119 1.39a18.967 18.967 0 0 0 -2.069-2.669q1.095.631 2.183 1.277zm-21.178-11.058q4.134 1.887 8.2 3.953a19.379 19.379 0 0 0 -5.2-.182l-3.82.432c.341-1.394.61-2.796.82-4.203zm-1.483 10.317 5.124-.58a13.073 13.073 0 0 1 14.169 10.426c.084.413.149.847.2 1.313a5.814 5.814 0 0 1 -4.638 6.305c-.193.039-.391.066-.583.086a13.14 13.14 0 0 1 -14.35-11.578zm-90.11-53.322a24.165 24.165 0 0 1 17.336-2.286c7.125 1.655 14.317 6.47 20.8 13.923a3 3 0 0 0 3.469.779c9.256-4.06 17.651-5.259 24.952-3.565 12.639 2.926 20.124 13.918 19.537 28.694-.333 9.009-3.693 18.031-9.72 26.094-11.162 14.943-30.605 25.186-54.756 28.85a3.67 3.67 0 0 1 -.374.011 3.1 3.1 0 0 1 -.305-.158 109.624 109.624 0 0 1 -20.107-17.972c-12.839-14.94-23.181-38.49-13.712-59.748 2.996-6.592 7.449-11.645 12.88-14.622zm-69.443 8.85c7.3-1.694 15.7-.494 24.952 3.566a3 3 0 0 0 3.468-.779c6.483-7.453 13.676-12.268 20.8-13.922a24.561 24.561 0 0 1 12.506.294 38.72 38.72 0 0 0 -10.632 14.151c-4.156 9.33-5.224 20.127-3.089 31.223 2.173 11.288 7.7 22.606 16.037 32.877a111.87 111.87 0 0 1 -18.421 16.082c-.13.076-.239.13-.288.154a3.417 3.417 0 0 1 -.392-.007c-24.154-3.659-43.596-13.907-54.758-28.851-6.027-8.062-9.388-17.085-9.72-26.1-.588-14.769 6.898-25.761 19.537-28.688zm-25.167 33.218a48.33 48.33 0 0 0 .989 5.317l-6.113-.613a19.284 19.284 0 0 0 -5.15.179q5.082-2.571 10.274-4.883zm-20.09 22.426c.05-.479.115-.913.2-1.326a13.065 13.065 0 0 1 12.831-10.493c.442 0 .889.022 1.338.067l5.8.582-.582 5.808a13.133 13.133 0 0 1 -14.358 11.74 5.982 5.982 0 0 1 -.592-.086 5.81 5.81 0 0 1 -4.637-6.292zm-.977-11.713a19.035 19.035 0 0 0 -2.072 2.669c-.031-.463-.068-.926-.119-1.387.731-.433 1.458-.86 2.191-1.282zm-24.239-2.663a31.356 31.356 0 0 0 -1.884-17.915 26.932 26.932 0 0 1 17.116 18.139c-6.975 5.231-13.729 8.783-20.187 10.621a27.507 27.507 0 0 0 4.955-10.845zm-37.1 2.191a26.947 26.947 0 0 1 26.417-21.591q.74 0 1.482.041a29.432 29.432 0 0 1 3.743 12.406 16.654 16.654 0 0 0 -5.175-1.991 16.024 16.024 0 0 0 -11.973 2.225 15.238 15.238 0 0 0 -6.38 10.513 17.78 17.78 0 0 0 -.007 5.13 30.443 30.443 0 0 1 -8.2-6.235c.037-.166.06-.334.091-.498zm30.89-2.127a24.67 24.67 0 0 1 -8.41 12.237 30.4 30.4 0 0 1 -7.367-.782 11.393 11.393 0 0 1 -1.062-6.834 9.247 9.247 0 0 1 3.775-6.411 9.978 9.978 0 0 1 7.466-1.335 10.233 10.233 0 0 1 5.596 3.125zm-26.91 22.42a26.892 26.892 0 0 1 -4.332-11.9 35.93 35.93 0 0 0 22.389 7.748c.554 0 1.111-.013 1.669-.036 9.432-.4 19.381-4.224 29.631-11.386a26.944 26.944 0 0 1 -49.357 15.574zm49.825 10.571a13.073 13.073 0 0 1 10.426 14.169l-.582 5.8-5.808-.583a13.138 13.138 0 0 1 -11.74-14.36c.02-.2.048-.4.086-.59a5.809 5.809 0 0 1 5.7-4.669 5.653 5.653 0 0 1 .594.03c.478.054.911.119 1.324.203zm-25.913 9.584a5.84 5.84 0 0 1 4.218 6.786c-.023.115-.051.232-.084.355a13.139 13.139 0 0 1 -15.276 9.479c-.269-.054-.536-.118-.784-.182l-5.637-1.505 1.5-5.637a13.143 13.143 0 0 1 16.063-9.296zm-15.415-2.141c.72-.734 1.448-1.457 2.178-2.18.227.086.452.176.68.257a19.234 19.234 0 0 0 -2.858 1.923zm-3.35 3.5a18.975 18.975 0 0 0 -3.09 6.392l-1.9 7.123-7.07 3.099a19.485 19.485 0 0 0 -3.9 2.3 228.857 228.857 0 0 1 15.96-18.917zm-9.65 22.104 5.584-2.447 2.436 5.562c.114.266.222.53.321.8a13.623 13.623 0 0 1 -7.324 17.14c-.11.049-.226.1-.344.139a6.1 6.1 0 0 1 -7.674-3.28 13.62 13.62 0 0 1 7.001-17.914zm-9.336 37.21c.193-.071.394-.13.591-.182a13.594 13.594 0 0 1 16.56 9.77l1.521 5.908-5.9 1.519a13.552 13.552 0 0 1 -16.152-8.456c-.15-.41-.285-.844-.408-1.314a6.075 6.075 0 0 1 3.788-7.245zm9.326 23.456a19.825 19.825 0 0 0 4.943-.629l8.807-2.267a3 3 0 0 0 2.157-3.653l-2.269-8.815a19.625 19.625 0 0 0 -23.873-14.08c-.046.011-.088.029-.133.041a33.618 33.618 0 0 0 1.215-6.521 12.155 12.155 0 0 0 7.761 2.821 11.989 11.989 0 0 0 4.143-.739c.236-.086.478-.184.7-.281a19.628 19.628 0 0 0 10.535-24.7c-.133-.365-.28-.726-.446-1.113l-1.159-2.646 2.6.693c.375.1.744.185 1.116.261a19.1 19.1 0 0 0 22.261-13.8c.065-.236.123-.483.171-.722a11.835 11.835 0 0 0 -3.652-11.1 32.537 32.537 0 0 0 5.793-2.028 19.148 19.148 0 0 0 17.109 20.93l8.8.882a2.741 2.741 0 0 0 .3.016 3 3 0 0 0 2.984-2.7l.882-8.79a19.054 19.054 0 0 0 -15.2-20.647c-.6-.122-1.221-.216-1.905-.288h-.012a32.654 32.654 0 0 0 4.064-7.5 11.777 11.777 0 0 0 8.617 7.166c.381.077.773.134 1.177.176a19.118 19.118 0 0 0 20.922-17.123l.048-.478a59.038 59.038 0 0 0 5.026 7.974c12.129 16.238 33 27.321 58.77 31.208l1.045.061a7.04 7.04 0 0 0 1.473-.144 7.636 7.636 0 0 0 2.168-.944q.077-.046.15-.1a118.566 118.566 0 0 0 19.017-16.477 118.357 118.357 0 0 0 19.018 16.477c.049.035.1.068.151.1a7.7 7.7 0 0 0 2.221.957 6.821 6.821 0 0 0 1.4.132l1.064-.062c25.77-3.887 46.642-14.97 58.77-31.207q1.806-2.414 3.319-4.933a19.1 19.1 0 0 0 20.488 14.544c.4-.041.788-.1 1.168-.175a11.773 11.773 0 0 0 8.617-7.168 32.615 32.615 0 0 0 4.066 7.507h-.026c-.671.07-1.29.164-1.891.285a19.056 19.056 0 0 0 -15.2 20.649l.882 8.789a3 3 0 0 0 2.984 2.7 2.741 2.741 0 0 0 .3-.016l8.8-.882a19.147 19.147 0 0 0 17.106-20.929 32.7 32.7 0 0 0 5.793 2.028 11.833 11.833 0 0 0 -3.651 11.1c.048.24.106.487.168.715a19.1 19.1 0 0 0 22.263 13.809c.373-.076.742-.163 1.141-.266l2.574-.688-1.168 2.669c-.157.364-.3.725-.437 1.09a19.624 19.624 0 0 0 10.525 24.695c.231.1.473.2.7.285a12.006 12.006 0 0 0 4.146.74 12.156 12.156 0 0 0 7.762-2.821 33.557 33.557 0 0 0 1.215 6.521c-.048-.013-.092-.031-.14-.043a19.625 19.625 0 0 0 -23.866 14.084l-2.269 8.813a3 3 0 0 0 2.157 3.653l8.808 2.267a19.819 19.819 0 0 0 4.942.63 19.515 19.515 0 0 0 18.337-12.828c.216-.59.407-1.2.586-1.884.014-.055.021-.11.035-.166a33.494 33.494 0 0 0 7.287 5.512 12.044 12.044 0 0 0 -8.783 7.654c-.137.373-.255.76-.36 1.161a19.626 19.626 0 0 0 14.085 23.866l8.812 2.27a3.026 3.026 0 0 0 .749.094 3 3 0 0 0 2.905-2.252l1.553-6.034a228 228 0 0 1 -23.767 169.258l-25.83-109.094-.061.015c-.02-.224-.035-.448-.068-.672a12.722 12.722 0 0 0 -1.062-3.548v-35.412a59.4 59.4 0 0 0 -59.335-59.336 70.37 70.37 0 0 0 -29.247 6.276c-.1-.144-.185-.3-.29-.437-2.747-3.569-7.512-4.536-11.859-2.407l-.018.01c-4.764 2.374-8.546 8.33-7.748 16.835-8.19-3.241-15.132-1.091-18.755 3.01-3.241 3.655-3.562 8.524-.8 12.117a11.258 11.258 0 0 0 4.583 3.434 13.663 13.663 0 0 0 .346 1.509 71.557 71.557 0 0 0 -6.81 29.038q-3.686 1.042-7.444 1.872a3 3 0 1 0 1.281 5.861q3.18-.7 6.31-1.546c.1 1.53.237 3.062.434 4.593l.412 3.209-11.121 2.431a3 3 0 0 0 1.281 5.862l10.605-2.32.2 1.563a12.534 12.534 0 0 0 -3.834 7.384 12.682 12.682 0 0 0 3.574 10.679l-52.411 157.345v-46.193a31.624 31.624 0 0 0 -31.588-31.588h-18.923a33.6 33.6 0 0 0 -5.9-13.6l-2.366-3.248v-13.178a51.943 51.943 0 0 0 25.938-44.925v-1.068a12.384 12.384 0 0 0 1.951.17 12.622 12.622 0 0 0 12.509-14.395 12.561 12.561 0 0 0 -3.142-6.687v-45.991a33.662 33.662 0 0 0 -14-27.28l-29.222-20.988a21.506 21.506 0 0 0 -22.539-1.637l-21.373 11.068a9.033 9.033 0 0 0 -9.482-1.191l-14.479 6.743a29.008 29.008 0 0 0 -16.7 26.2v54.633a12.617 12.617 0 0 0 10.572 19.522 12.524 12.524 0 0 0 2.054-.19v1.088a51.943 51.943 0 0 0 25.938 44.925v13.178l-2.37 3.249a33.631 33.631 0 0 0 -5.9 13.6h-18.924a31.623 31.623 0 0 0 -31.588 31.588v11.37a227.594 227.594 0 0 1 -39.452-192.7l1.553 6.035a3 3 0 0 0 2.905 2.252 3.026 3.026 0 0 0 .749-.094l8.814-2.27a19.628 19.628 0 0 0 14.081-23.869c-.1-.393-.221-.78-.358-1.153a12.044 12.044 0 0 0 -8.788-7.652 33.482 33.482 0 0 0 7.293-5.514c.014.059.021.119.037.179.176.669.367 1.281.583 1.871a19.513 19.513 0 0 0 18.34 12.825zm-31.653-3.027c.411-.151.845-.285 1.314-.408a6.165 6.165 0 0 1 1.542-.2 6.069 6.069 0 0 1 5.7 3.989c.071.192.13.393.181.589a13.616 13.616 0 0 1 -9.769 16.559l-5.908 1.522-1.519-5.9a13.549 13.549 0 0 1 8.456-16.151zm-11.2-63.643a27.829 27.829 0 0 1 3.395 55.452c5.735-11.588 8.1-22.344 7.033-32.023a36.965 36.965 0 0 0 -11.734-23.382c.432-.021.867-.047 1.302-.047zm-25.232 16.085a27.627 27.627 0 0 1 15.629-14.371c.181-.067.364-.119.547-.182a30.849 30.849 0 0 1 7.759 7.52c-6.286.007-12.4 3.339-15 8.927-2.664 5.721-1.258 12.695 2.868 17.473a30.651 30.651 0 0 1 -13.773-1.831 27.86 27.86 0 0 1 1.97-17.536z"/></g></svg>