<svg xmlns="http://www.w3.org/2000/svg" height="35" width="70" viewBox="0 0 417.44 277.95"><defs><style>.cls-1{isolation:isolate;}.cls-2,.cls-8{fill:#eb6119;}.cls-3,.cls-7{fill:#f59b00;}.cls-4{fill:#e7e5d3;}.cls-5{fill:#4c2c13;}.cls-6{fill:#e6332a;}.cls-6,.cls-7,.cls-8{mix-blend-mode:multiply;}.cls-6,.cls-7{opacity:0.4;}.cls-8{opacity:0.29;}</style></defs><g class="cls-1"><g id="Calque_1" data-name="Calque 1"><g id="tent"><path class="cls-2" d="M495.71,533.34h-.57c-8.43,0-108,.08-166.32-.11h-.24c-24.35-.07-41.44-.2-41.59-.37V255.4C341.67,354.38,416.67,452.21,495.71,533.34Z" transform="translate(-78.27 -255.4)"/><path class="cls-3" d="M287,255.4V532.86l-41.33.1h-.76l-166.63.39.7-.67c56.48-53.39,175.89-204.07,208-277.12a.11.11,0,0,0,0-.05A.27.27,0,0,0,287,255.4Z" transform="translate(-78.27 -255.4)"/><path class="cls-4" d="M355.05,501.45c-5.23,10.43-15.63,20.86-26.23,31.77l-.12.12-.12-.12C308.7,513.16,294.84,448.31,287,417.69,307.93,459.57,334.11,485.74,355.05,501.45Z" transform="translate(-78.27 -255.4)"/><path class="cls-4" d="M218.94,501.45c20.94-15.71,47.11-41.88,68.05-83.76-7.86,30.68-21.77,95.71-41.71,115.66C234.64,522.39,224.17,511.92,218.94,501.45Z" transform="translate(-78.27 -255.4)"/><polygon class="cls-5" points="250.43 277.94 167.01 277.94 167.16 277.55 208.72 162.28 250.39 277.82 250.43 277.94"/><g id="shadows"><path class="cls-6" d="M495.53,533.15c-129.32-44-207.77-245.61-208.43-277.56C341.73,354.43,416.61,452.12,495.53,533.15Z" transform="translate(-78.27 -255.4)"/><path class="cls-7" d="M287,259c-5,59-100.17,239.84-208,273.66,56.48-53.39,175.89-204.07,208-277.12a.11.11,0,0,0,0-.05,3.15,3.15,0,0,1,.05.43A16.68,16.68,0,0,1,287,259Z" transform="translate(-78.27 -255.4)"/></g><path id="shadow" class="cls-8" d="M495.71,533.34h-.57c-8.43,0-108,.08-166.32-.11h-.24c-24.35-.07-41.44-.2-41.59-.37V255.4C341.67,354.38,416.67,452.21,495.71,533.34Z" transform="translate(-78.27 -255.4)"/></g></g></g></svg>