<svg id="Calque_1" data-name="Calque 1" xmlns="http://www.w3.org/2000/svg" viewBox="0 0 23.15 45.2" width="140" height="70"><defs><style>.cls-1{fill:#010101;}</style></defs><path class="cls-1" d="M309,428.92a16,16,0,0,0-3.25-3.17,53.42,53.42,0,0,0-.45-5.92c-.11-1.59-.1-3.19-.29-4.77h.1a.73.73,0,0,0,.69-.42.68.68,0,0,0,.32-1c-1.39-2-2.88-3.95-4.22-6-1-1.59-2-3.25-3.1-4.79a16,16,0,0,0-.4-4.59.56.56,0,0,0-1.08,0,13.9,13.9,0,0,0-.26,4.13c-2.41,3.85-5.2,7.77-7.13,11.88a.54.54,0,0,0,.52.75l.68.07c-.37,3.06-.67,6.84,0,9.87-1.71,1.28-3.4,2.59-5,4-.56.51.15,1.39.79,1l.76-.46a95.07,95.07,0,0,0-.18,12.4.61.61,0,0,0,.11.32.53.53,0,0,0,.43.51,68.62,68.62,0,0,0,9.62.21,56.72,56.72,0,0,0,9.58-.39.36.36,0,0,0,.24-.19.42.42,0,0,0,.34-.33A44.94,44.94,0,0,0,308,429.9C308.6,430.15,309.41,429.54,309,428.92Zm-4.59-4.21-.34-.26c-1.44-1.11-4.05-4-5.93-4.09-1.67-.11-3.72,2.22-5,3.14l-.76.56a46.46,46.46,0,0,0-.37-8.84c3.88.31,8-.09,11.87-.15a35,35,0,0,0,.12,5.22A41.4,41.4,0,0,0,304.38,424.71Zm-6.65-20.66a.65.65,0,0,0,.39,0,39.75,39.75,0,0,0,5.88,9.31c-4-.12-8.5-.35-12.46.47A79.43,79.43,0,0,0,297.73,404.05Zm3.36,37.34a23.79,23.79,0,0,0-.43-7.76c-.5-1.87-1.33-2.55-3.31-2.35-1.53.16-2.77.93-2.94,2.56a30.84,30.84,0,0,0,.33,7.53,47.15,47.15,0,0,0-5.95.17,90,90,0,0,0-.16-12.51c1.32-.84,2.61-1.73,3.88-2.65s3.88-3.72,5.47-3.94c.92-.14,4.81,3.55,5.34,4,1.17.93,2.26,1.95,3.49,2.78a45.08,45.08,0,0,0,0,12.55A38.08,38.08,0,0,0,301.09,441.39Z" transform="translate(-285.95 -397.89)"/><path class="cls-1" d="M299.12,425.53c-.25,0-.49,0-.74,0-.05-.36-.11-.73-.19-1.1s-.67-.28-.71.1-.06.71-.08,1.07a3,3,0,0,0-1.19.38.32.32,0,0,0,0,.54,3.33,3.33,0,0,0,1.18.38c0,.29,0,.58,0,.88,0,.83-.13,1.63.42,2.29a.38.38,0,0,0,.59-.07c.51-.74.2-1.78.14-2.63l0-.41h.59A.72.72,0,0,0,299.12,425.53Z" transform="translate(-285.95 -397.89)"/></svg>