<svg id="Calque_1" data-name="Calque 1" xmlns="http://www.w3.org/2000/svg" viewBox="0 0 29.39 37.7" width="140" height="70"><defs><style>.cls-1{fill:#010101;}</style></defs><path class="cls-1" d="M295.76,409.7a.43.43,0,0,0-.25-.36.45.45,0,0,0-.42-.42,35,35,0,0,0-8-.75.43.43,0,0,0-.33.23.34.34,0,0,0-.3.26c-1,3.8-4.06,14.77,1.83,16.35a42.27,42.27,0,0,0-.75,4.77,28.57,28.57,0,0,0-.44,5.68,3.87,3.87,0,0,0-3.82,1.82c-.25.07-.23.45,0,.55a26.4,26.4,0,0,0,6.68,1.56c.4,0,.54-.39.4-.69a.34.34,0,0,0,0-.31,4.14,4.14,0,0,0-2.5-2.74,26.94,26.94,0,0,0,1.29-10.47h.06c2.5.2,4.21-1.87,4.94-4A32.52,32.52,0,0,0,295.76,409.7Zm-6.53,28.49a27.27,27.27,0,0,0-5.05-.89,3.72,3.72,0,0,1,3-.87A3.3,3.3,0,0,1,289.23,438.19Zm-2-29.22c2.46.6,5.09.67,7.59,1h.06c-.21,1.16-.35,2.34-.49,3.51a23,23,0,0,0-4-.09,20.73,20.73,0,0,0-3.86.2C286.76,411.66,287.08,409.91,287.2,409Zm3.22,14.77c-4.37,1.14-4.49-4.52-4-9.32a20.06,20.06,0,0,0,3.95.21,24.86,24.86,0,0,0,3.86-.08c-.09.74-.19,1.49-.31,2.23C293.55,419.06,293.17,423,290.42,423.74Zm-1.78-5.09a.67.67,0,0,1,0-1.33A.67.67,0,0,1,288.64,418.65Zm3-1.63a.61.61,0,0,1,0-1.22A.61.61,0,0,1,291.6,417Zm.8,3.22a.59.59,0,0,1-.93-.12l0-.08a.57.57,0,0,1,.78-.78l.07,0A.6.6,0,0,1,292.4,420.24Zm-2.33,2,0,.06a.54.54,0,0,1-.73.35.54.54,0,0,1-.26-.77l.05-.05a.53.53,0,0,1,1,.41Zm22.46,13.07c-.23-1.38-2.31-2.14-3.55-1.9l-.22,0a25.74,25.74,0,0,0-1.46-4.69,50.14,50.14,0,0,0-1.79-4.94c5.73-2,2.46-11.49.45-15.05a.32.32,0,0,0-.41-.16.54.54,0,0,0-.22,0,47.22,47.22,0,0,0-8,1.94s0,0-.05,0a.36.36,0,0,0-.42.42c.73,3.91,1.7,14.22,7.86,13a48.47,48.47,0,0,0,1.57,5.41,22.68,22.68,0,0,0,1.54,4.42,4,4,0,0,0-2,2.92.18.18,0,0,0,0,.13c-.16.18-.07.54.21.51a15.61,15.61,0,0,0,2.85-.7c1.06-.3,2.14-.54,3.18-.9a.47.47,0,0,0,.18-.12A.35.35,0,0,0,312.53,435.31Zm-14.9-24.08a48.33,48.33,0,0,0,7.8-1.57c.37,1.39,1.14,3.6,1.62,5.81a38.76,38.76,0,0,0-3.89-.35,21.68,21.68,0,0,0-4.41-.08C298.39,413.76,298,412.49,297.63,411.23ZM304,422.88c-3,.05-4-3.23-4.61-5.52l-.49-1.78a21.55,21.55,0,0,0,3.92.57,31.43,31.43,0,0,0,4.43.32C307.83,419.77,307.52,422.82,304,422.88Zm2.78,13.56c.6-1,1.36-2.1,2.69-2.11a2.6,2.6,0,0,1,1.71.78A21.25,21.25,0,0,0,306.78,436.44Zm-5.41-16.78a.66.66,0,0,1,0-1.32A.66.66,0,0,1,301.37,419.66Zm2.14-1.76a.67.67,0,0,1,0-1.34A.67.67,0,0,1,303.51,417.9Zm.84,3a.69.69,0,1,1-.69-.7A.7.7,0,0,1,304.35,420.86Zm2.12-1.16a.58.58,0,0,1,0-1.15A.58.58,0,0,1,306.47,419.7Zm-9.1-13a.29.29,0,0,1-.54.15,22.21,22.21,0,0,1-1.14-2.42,3.94,3.94,0,0,1-.63-2.28.58.58,0,0,1,.85-.34,3.51,3.51,0,0,1,1,2.18A11.33,11.33,0,0,1,297.37,406.67Zm4.84-2.45a6.71,6.71,0,0,1-1.43,1.27c-.24.22-.51.41-.75.63s-.52.3-.73.51a.19.19,0,0,1-.31-.18,6.82,6.82,0,0,1,.2-1,5,5,0,0,1,.49-1,3.57,3.57,0,0,1,1.63-1.47A.81.81,0,0,1,302.21,404.22Zm-8,2.34c-.41-.29-.86-.52-1.27-.81s-.85-.6-1.3-.87a.81.81,0,0,1-.4-.71v-.09a.68.68,0,0,1,.33-.59l.07,0a.85.85,0,0,1,.83,0,9.22,9.22,0,0,1,1.33,1.16,5.7,5.7,0,0,1,.9,1.44C294.83,406.36,294.51,406.78,294.19,406.56Z" transform="translate(-283.14 -401.69)"/></svg>