<svg id="Capa_1" enable-background="new 0 0 512 512" height="512" viewBox="0 0 512 512" width="512" xmlns="http://www.w3.org/2000/svg"><g><g><g><path d="m241 0h30v45h-30z" fill="#4d5e80"/></g></g><path d="m256 0h15v45h-15z" fill="#3d4566"/><path d="m98.236 138.069-11.358 9.824-11.098 9.6 216.828 339.507h143.379 54.417l9.815-11.353z" fill="#ff9f40"/><path d="m435.987 497h54.417l9.815-11.353-401.983-347.578-11.358 9.824z" fill="#ff7f40"/><g><path d="m425.122 147.893-11.358-9.824-401.983 347.578 9.815 11.353h54.417 143.379l216.828-339.507z" fill="#ffdf40"/></g><g><path d="m436.22 157.493-11.098-9.6-349.109 349.107h143.379z" fill="#ffbe40"/></g><path d="m512 272h-30v-30h-30v30h-30v30h30v30h30v-30h30z" fill="#ffbe40"/><path d="m60 242h-30v30h-30v30h30v30h30v-30h30v-30h-30z" fill="#ffdf40"/><g><g><path d="m451 15h30v61.707h-30z" fill="#cfd7e6"/></g></g><g fill="#b399ff"><path d="m256 101h47.611l25.871-9c-6.969-34.191-37.266-62-73.482-62s-66.513 27.809-73.482 62l26.402 9z"/><path d="m256 113h-52.43l-21.052 9c6.969 34.191 37.266 60 73.482 60s66.513-25.809 73.482-60l-22.125-9z"/></g><g fill="#8080ff"><path d="m329.482 122-22.125-9h-51.357v69c36.216 0 66.513-25.809 73.482-60z"/><path d="m329.482 92c-6.969-34.191-37.266-62-73.482-62v71h47.611z"/><path d="m329.482 92h-73.482-73.482c-.989 4.849-1.518 9.864-1.518 15s.529 10.151 1.518 15h73.482 73.482c.989-4.849 1.518-9.864 1.518-15s-.529-10.151-1.518-15z"/></g><path d="m331 107c0-5.136-.529-10.151-1.518-15h-73.482v30h73.482c.989-4.849 1.518-9.864 1.518-15z" fill="#5c5ce6"/><g><path d="m497.831 75.184c-17.563-17.563-46.113-17.534-63.647 0l-53.028 53.027 31.824 31.824 31.809 31.809 53.057-53.027c17.505-17.549 17.505-46.085-.015-63.633z" fill="#4d5e80"/></g><g><path d="m497.846 138.816c17.505-17.549 17.505-46.084-.015-63.633l-84.851 84.851 31.809 31.809z" fill="#3d4566"/></g><g><g><path d="m421 0h91v30h-91z" fill="#e1e6f0"/></g></g><g><path d="m31 15h30v61.707h-30z" fill="#cfd7e6"/></g><g><path d="m0 0h91v30h-91z" fill="#e1e6f0"/></g><g><path d="m0 482h512v30h-512z" fill="#4d5e80"/></g><path d="m77.816 75.184c-17.534-17.534-46.084-17.563-63.647 0-17.52 17.549-17.52 46.084-.015 63.633l53.057 53.027 31.809-31.809 31.824-31.824z" fill="#4d5e80"/><path d="m130.844 128.211-53.028-53.027c-17.534-17.534-46.084-17.563-63.647 0l84.851 84.851z" fill="#3d4566"/><path d="m256 482h256v30h-256z" fill="#3d4566"/></g></svg>