<svg id="Calque_1" data-name="Calque 1" xmlns="http://www.w3.org/2000/svg" viewBox="0 0 37.23 25.93" width="140" height="70"><defs><style>.cls-1{fill:#010101;}</style></defs><path class="cls-1" d="M217.64,431.08a.3.3,0,0,0-.58,0c-.18,1,.21,3.27,0,5a3.37,3.37,0,0,0-.71-.09c0-1.54,0-3.08,0-4.61a.4.4,0,0,0-.8,0c0,1.53,0,3.07,0,4.61-.21,0-.42,0-.62,0h-.17a30.78,30.78,0,0,0,.18-4.6.39.39,0,0,0-.78,0,32.89,32.89,0,0,0,0,4.55,1.52,1.52,0,0,0-.64.11c-.21-1.67.08-3.79,0-4.75,0-.26-.46-.39-.52-.07a18.46,18.46,0,0,0-.24,5.74,2.77,2.77,0,0,0,2,2.14,38.85,38.85,0,0,0,0,6.29c.1,2.18-.07,4.55.62,6.63a.39.39,0,0,0,.75,0c.5-2.13.15-4.45.12-6.63a48.2,48.2,0,0,0-.26-6.13,2.2,2.2,0,0,0,1.81-2,11.9,11.9,0,0,0,.07-2.8A15.94,15.94,0,0,0,217.64,431.08Zm-2.15,7.28a.81.81,0,0,0-.31,0c-.82-.06-1.26-.66-1.49-1.51a3.72,3.72,0,0,0,1.17.15,7.41,7.41,0,0,0,2,0A1.64,1.64,0,0,1,215.49,438.36Z" transform="translate(-212.61 -428.36)"/><path class="cls-1" d="M249.62,447.77c0-2-.11-4-.1-6,0-3.49.19-7,0-10.48a.25.25,0,0,0-.23-.26.4.4,0,0,0-.63.09A30.6,30.6,0,0,0,246,442.57a.5.5,0,0,0,.49.49l1.34.17a10,10,0,0,0,0,3.37c.1,1.78-.14,4,.5,5.69a.62.62,0,0,0,1.11.15C250.1,451.09,249.8,449.32,249.62,447.77Zm-1.14-5.54v.09l-1.52-.18a36.59,36.59,0,0,1,1.76-8.77C248.48,436.31,248.5,439.28,248.48,442.23Z" transform="translate(-212.61 -428.36)"/><path class="cls-1" d="M222.67,431.3c-2.8,2.08-3.94,5.16-4.18,8.58-.5,7.05,4,13.93,11.38,14.37,3.4.2,7.19-.32,9.9-2.56a14.1,14.1,0,0,0,4.69-8.63C245.62,431.27,233.87,424,222.67,431.3Zm20.68,11.64a12.84,12.84,0,0,1-4.72,8.28c-2.38,1.69-5.54,2.08-8.39,2-6.63-.27-10.91-6-10.76-12.46.08-3.57,1.23-6.94,4.31-9a15.32,15.32,0,0,1,7.54-2.29C238.69,429.47,244.1,436.47,243.35,442.94Z" transform="translate(-212.61 -428.36)"/><path class="cls-1" d="M229.52,434.11a7.72,7.72,0,0,0-6,7.87,8.11,8.11,0,0,0,9,7.41c4.76-.55,7.92-6.29,6.23-10.74C237.56,435.33,233,432.09,229.52,434.11ZM232,448a6.74,6.74,0,0,1-7-5.36c-.79-3.81,2.35-7.05,5.86-7.61a6.49,6.49,0,0,1,6.9,4.74C238.7,443.52,236,447.85,232,448Z" transform="translate(-212.61 -428.36)"/></svg>