<svg id="Calque_1" data-name="Calque 1" xmlns="http://www.w3.org/2000/svg" viewBox="0 0 30.43 35.91" width="140" height="70"><defs><style>.cls-1{fill:#010101;}</style></defs><path class="cls-1" d="M235.74,434.56a.81.81,0,0,0-1-.77c-4.72,1.2-9.43,2.43-14.16,3.59a.79.79,0,0,0-.55,1,34.27,34.27,0,0,1,1.57,9.48c0,1.05,0,2.1,0,3.15a4.31,4.31,0,0,0-5.11,2.31,3,3,0,0,0,2.94,4.25c3.45-.27,3.82-4.35,3.87-7a41,41,0,0,0-.45-7.18,81,81,0,0,0,12-2.8c.34,1.81.74,3.61,1.07,5.42.17.95.43,2.09.58,3.24-2.18.64-5.89,2-5.48,4.86.33,2.29,3.29,2.65,5,1.7,2.75-1.54,2.33-5.18,2-7.79C237.37,443.47,236.17,439.1,235.74,434.56Zm-13.06,7.87a32.64,32.64,0,0,0-.9-3.73c4.13-1.06,8.28-2.09,12.42-3.13a34.42,34.42,0,0,0,.41,3.5A82.58,82.58,0,0,0,222.68,442.43Z" transform="translate(-216.24 -421.64)"/><path class="cls-1" d="M241,422.24c-1.22-1.54-2.6.2-3.32,1.67a2.35,2.35,0,0,0-1.07-1.23,1.72,1.72,0,0,0-2.23.54,3.16,3.16,0,0,0,.22,2.82,35,35,0,0,0,2.88,4.46c.28.43,1.07.57,1.31,0,.7-1.56,1.48-3.12,2.05-4.73C241.14,424.84,241.67,423.13,241,422.24Z" transform="translate(-216.24 -421.64)"/><path class="cls-1" d="M246.13,433c-1.33-1-2.3.32-2.81,1.7-.69-1-2-1.55-2.83-.29a1.62,1.62,0,0,0,.46,2.05,22.8,22.8,0,0,1,2.61,3.2.75.75,0,0,0,1.36-.18,24.33,24.33,0,0,1,1.48-4.06C246.7,434.64,246.9,433.56,246.13,433Z" transform="translate(-216.24 -421.64)"/></svg>